<svg width="430" height="932" viewBox="0 0 430 932" fill="none" xmlns="http://www.w3.org/2000/svg">
<g clip-path="url(#clip0_311_1151)">
<rect width="430" height="932" fill="black"/>
<g filter="url(#filter0_dii_311_1151)">
<g clip-path="url(#clip1_311_1151)">
<rect x="87.4319" y="273" width="1330" height="1330" rx="665" transform="rotate(37.217 87.4319 273)" fill="#157A6E"/>
<g filter="url(#filter1_d_311_1151)">
<path d="M467.576 1061.11L466.983 1060.2L467.51 1057.4L467.253 1056.43L465.267 1055.31L463.359 1054.66L463.178 1053.33L461.566 1049.1L459.32 1047.59L456.739 1043.83L455.536 1043.5C454.563 1039.61 454.095 1035.89 453.405 1035.07C452.485 1033.98 453.101 1031.64 455.688 1030.5C458.279 1029.39 461.278 1028.44 461.868 1028.52C462.498 1028.59 465.298 1029.12 463.268 1027.58C462.623 1027.08 461.818 1026.64 460.978 1026.25C461.972 1025.45 463.311 1024.46 463.879 1024.38C464.88 1024.24 466.509 1025.58 467.386 1026.24C468.263 1026.91 468.677 1026.01 469.171 1025.49C469.665 1024.96 468.852 1023.26 468.852 1023.26L471.221 1023.04L470.224 1021.19L471.822 1022C471.822 1022 473.118 1021.09 473.378 1020.87C473.626 1020.67 472.658 1019.84 472.212 1019.5C471.766 1019.16 471.107 1017.67 471.107 1017.67L470.432 1014.95C470.432 1014.95 469.753 1014.82 468.938 1014.81C468.154 1014.82 468.943 1011.52 468.943 1011.52C468.943 1011.52 466.805 1011.3 466.312 1010.92C465.79 1010.53 465.497 1008.39 465.497 1008.39L463.866 1008.56L464.299 1006.68L465.148 1005.43L464.594 1005.11L465.812 1003.63L463.011 1001.8L464.295 999.692L465.371 1000.51L465.401 997.598L465.464 996.045L463.771 995.657L462.663 995.519L462.926 994.918L461.678 993.655L460.802 994.808L459.06 993.558L460.543 991.605L459.867 991.091L461.873 988.226L464.088 990.417L466.683 989.842L466.318 988.376L466.972 987.515L464.953 986.661L466.664 984.759L465.485 983.694L466.629 980.974L466.058 979.619L467.519 978.716L467.32 977.255L468.488 976.93L469.278 976.05L468.585 975.015L468.621 973.563L466.621 973.354L465.464 973.153L466.454 971.626L464.699 970.584L463.754 968.412L466.184 964.607L464.492 963.928L466.722 961.79L466.537 960.437L466.704 960.346L469.573 958.548C469.573 958.548 471.192 954.564 471.899 953.889C472.61 953.24 475.775 953.001 475.775 953.001L476.042 951.627C477.946 952.152 479.791 951.225 480.667 951.891C481.805 952.755 483.574 954.098 483.422 952.989C483.27 951.88 481.273 949.975 481.302 949.172C481.274 948.569 481.538 947.169 479.187 945.698C484.157 944.454 496.462 941.311 498.666 940.293C501.439 939.005 498.917 932.045 498.917 932.045L501.738 931.204L501.569 929.064L503.771 925.91L502.756 925.139L503.049 923.955L504.468 923.651L504.223 922.664L506.809 919.803L508.145 920.406C508.145 920.406 511.095 910.424 511.398 910.024C511.702 909.624 515.013 908.744 515.522 908.33C516.03 907.916 518.382 906.671 518.232 904.763C518.081 902.854 516.743 900.625 516.743 900.625L520.117 896.98C520.117 896.98 520.492 896.391 521.137 895.669L522.704 895.937L524.782 894.509L527.355 895.081L528.628 893.405L529.153 894.821L530.291 895.686L531.175 894.393C532.367 897.263 534.275 901.04 536.284 902.833C539.419 905.602 541.571 908.036 542.552 914.407C543.533 920.778 548.097 927.445 545.619 930.995C543.125 934.533 543.4 935.736 538.797 936.241C534.198 936.774 531.795 936.744 527.984 929.629C524.145 922.519 522.1 918.347 521.624 917.378C521.147 916.41 520.872 915.207 520.684 918.871C520.538 922.543 522.848 926.335 521.534 928.32C520.209 930.32 516.779 935.378 516.037 937.409C515.295 939.44 516.387 944.101 517.693 945.287C518.972 946.476 520.648 947.749 521.217 946.169C521.787 944.589 520.946 942.568 521.177 940.124C521.435 937.677 523.409 936.388 524.655 939.759C525.929 943.127 530.959 949.179 531.39 945.675C531.836 942.182 530.777 940.383 533.284 940.275C535.764 940.17 543.845 937.481 545.44 940.681C547.024 943.896 548.266 945.422 549.703 943.53C550.333 942.7 550.816 941.393 551.362 939.94L556.005 942.352C555.952 942.772 556.02 943.163 556.233 943.616C557.492 946.173 556.232 945.725 564.343 943.858C572.468 942.003 582.685 941.227 585.219 946.352C587.752 951.477 589.171 950.663 592.476 952.665C595.805 954.635 598.967 956.794 602.754 957.779C606.544 958.791 608.234 953.405 607.196 951.259C606.143 949.102 609.135 948.706 611.535 952.954C613.947 957.186 618.298 961.291 618.765 967.03C619.256 972.737 619.712 977.085 620.727 977.856C621.742 978.627 625.47 980.391 625.608 973.537C625.704 966.674 627.173 959.472 630.115 957.705C633.069 955.923 640.212 952.521 645.732 948.445C651.253 944.369 652.913 943.205 655.121 945.949C657.329 948.693 660.957 953.049 654.412 958.505C647.867 963.962 649.556 966.336 646.918 969.425C644.308 972.511 634.496 983.003 636.188 984.288C637.879 985.573 639.614 989.291 642.876 983.208C646.18 977.134 653.215 965.381 658.932 965.964C664.637 966.562 672.863 966.651 673.577 968.551C674.285 970.398 674.463 977.251 676.14 978.524C677.816 979.797 680.07 979.351 680.218 975.996C680.377 972.625 681.406 963.512 683.922 961.955C686.465 960.395 700.166 971.601 703.289 969.948C706.413 968.295 703.08 961.762 708.967 960.365C714.854 958.968 722.767 956.66 727.165 960C731.563 963.341 734.658 962.491 737.5 963.315C740.368 964.136 744.748 966.128 748.598 968.786C752.478 971.467 754.443 969.2 757.597 969.995C760.736 970.779 762.791 970.181 766.053 967.323C769.31 964.439 774.564 961.736 777.913 962.946C781.289 964.152 784.441 970.571 782.515 971C780.6 971.413 775.146 971.538 776.797 972.525C778.448 973.513 783.065 978.353 781.978 980.486C780.892 982.619 790.706 987.673 791.124 990.634C791.543 993.595 792.59 1007 784.494 1008.88C776.399 1010.76 762.957 1011.53 762.956 1013.64C762.932 1015.78 767.091 1018.38 770.641 1022.17C774.202 1025.94 785.159 1033.7 784.993 1038.14C784.827 1042.57 791.545 1053.81 794.372 1050.09C797.198 1046.37 798.122 1043.04 803.365 1052.36C808.58 1061.68 808.285 1063.86 805.331 1065.64C802.377 1067.42 799.564 1069.02 799.147 1072.73C798.731 1076.43 796.565 1088.42 802.828 1083.01C809.102 1077.59 809.14 1075.76 810.641 1081.19C812.141 1086.62 824.123 1096.55 827.165 1094.3C830.222 1092.06 832.983 1084.53 839.332 1090.95C845.682 1097.37 854.425 1104.57 854.697 1108.78C854.957 1113 855.391 1115.98 855.125 1120.89C854.883 1125.78 859.143 1129.01 862.646 1130.34C866.168 1131.7 875.242 1139.1 872.845 1142.64C870.433 1146.17 865.07 1150.39 871.012 1153.84C876.982 1157.28 882.226 1161.26 883.147 1163.56C884.083 1165.87 888.378 1165.14 889.706 1165.88C891.019 1166.61 902.529 1169.75 907.399 1177.45C912.242 1185.15 915.977 1197.86 918.236 1204.4C920.494 1210.94 922.342 1214.48 921.443 1215.66C920.543 1216.85 916.9 1220.24 918.084 1221.14C919.268 1222.04 921.857 1220.61 921.857 1220.61C922.61 1221.18 926.666 1224.94 926.621 1225.41C926.526 1226.34 927.243 1234.91 927.243 1234.91C924.955 1235.81 923.671 1235.4 923.386 1236.03C923.135 1236.61 920.537 1235.05 918.889 1235.59C917.244 1236.16 911.024 1241.48 910.427 1240.64C909.872 1239.8 905.198 1232.23 906.138 1230.74C907.062 1229.23 907.326 1225.21 904.634 1223.97C901.972 1222.75 902.497 1218.32 903.331 1217.76C904.161 1217.18 903.059 1214.16 901.762 1215.36C900.438 1216.56 899.789 1221.09 896.665 1221.53C893.553 1221.95 888.959 1221.11 888.416 1219.46C887.847 1217.81 885.959 1215.8 885.8 1217.86C885.629 1219.94 886.586 1221.29 886.677 1223.57C886.767 1225.84 885.425 1226.81 885.593 1228.95C885.762 1231.1 884.56 1235.61 882.729 1235.63C880.926 1235.64 878.9 1230.9 876.655 1230.41C874.437 1229.91 853.098 1227.36 851.526 1229.17C849.955 1230.99 847.078 1231.61 848.083 1225.76C849.118 1219.92 838.975 1225.87 837.33 1223.82C835.835 1221.96 835.803 1218.39 832.023 1218.77L828.095 1212.42C832.455 1211.85 837.433 1211.36 840.186 1209.53C843.851 1207.1 848.269 1205.24 843.761 1204.02C839.284 1202.83 840.117 1204.89 832.293 1206.73C824.445 1208.6 823.628 1210.19 824.785 1207.87C825.958 1205.56 830.94 1201.87 827.649 1199.37C824.358 1196.87 812.662 1198.22 809.078 1199.53C805.493 1200.83 807.828 1206.22 803.211 1203.29C798.598 1200.39 798.092 1198.41 788.465 1190.49C778.811 1182.58 775.704 1179.01 758.375 1183.3C741.061 1187.61 736.059 1187.62 741.132 1193.08C746.221 1198.54 753.456 1199.04 749.483 1205.07C745.523 1211.08 727.537 1228.12 712.749 1229.94C697.918 1231.74 695.653 1232.62 694.596 1229.22C694.142 1227.71 691.472 1227.33 688.315 1227.53L689.319 1225.6L689.122 1224.96L691.535 1225.87L695.279 1221.71C695.279 1221.71 695.554 1218.48 696.431 1218.34C697.34 1218.23 700.56 1217.69 701.171 1219.54C701.754 1221.39 701.679 1221.75 704.464 1220.44C707.252 1219.16 710.419 1217.93 710.701 1216.76C710.994 1215.58 714.237 1215.01 714.237 1215.01L716.176 1212.46L711.256 1209.93C711.256 1209.93 709.375 1211.1 707.699 1209.83C706.023 1208.56 703.378 1206.55 704.395 1205.72C705.427 1204.9 706.858 1201.96 706.858 1201.96L706.135 1200.81L705.773 1197.55L704.419 1195.92L702.051 1193.51L703.441 1190.37L704.214 1185.14C704.214 1185.14 707.415 1180.92 706.907 1180.54C706.4 1180.15 708.818 1176.17 705.1 1171.55C701.381 1166.93 698.394 1166.65 697.609 1166.06C696.825 1165.46 693.824 1164.18 692.283 1165.41C690.743 1166.64 692.666 1167.3 692.666 1167.3L691.37 1169.51C691.37 1169.51 687.728 1169.59 686.586 1170.51C685.461 1171.45 682.138 1172.95 681.998 1173.65C681.874 1174.35 679.522 1175.6 677.708 1174.83C676.333 1174.24 675.083 1172.66 673.988 1171.11C673.647 1170.63 673.329 1170.12 673.004 1169.65C671.726 1167.67 669.634 1167.48 669.482 1166.37C669.315 1165.25 669.426 1163.54 666.1 1164.22C662.759 1164.88 659.178 1163.79 655.994 1161.37C652.811 1158.95 650.227 1155.77 650.677 1154.13C651.139 1152.47 649.418 1151.57 649.418 1151.57C649.418 1151.57 650.477 1148.33 647.515 1146.92C644.589 1145.48 639.267 1144.06 639.148 1140.76C639.014 1137.46 640.243 1135.36 640.243 1135.36L638.54 1132.08L635.447 1129.51L636.251 1128.74L634.82 1125.84C629.114 1126.74 627.817 1129.76 627.768 1130.91C627.691 1132.06 624.812 1134.29 623.767 1133.3C622.707 1132.3 621.957 1129.33 620.034 1128.67C618.141 1128.03 616.602 1125.85 617.085 1123.84C617.634 1121.8 614.422 1120.99 614.422 1120.99L614.871 1120.14L613.167 1117.66L600.918 1117.38L598.196 1115.92C598.196 1115.92 597.6 1116.09 597.04 1116.13L597.025 1116.12C596.684 1116.15 596.349 1116.11 596.164 1115.97C595.98 1115.83 595.689 1115.42 595.398 1114.91C594.898 1113.97 594.376 1112.77 594.551 1112.54C594.843 1112.16 595.55 1111.48 595.55 1111.48C595.55 1111.48 592.369 1112.51 591.643 1110.53C590.921 1108.57 591.366 1106.68 591.366 1106.68L590.524 1104.05C590.524 1104.05 591.884 1101.5 590.006 1100.26C588.144 1099.04 587.035 1099.19 587.035 1099.19L585.221 1097.62L584.592 1096.35C584.592 1096.35 585.639 1093.11 584.764 1093.47C583.889 1093.82 580.795 1094.48 580.795 1094.48C580.795 1094.48 583.39 1081.8 583.313 1081.14C583.209 1080.48 582.164 1074.45 582.164 1074.45C582.164 1074.45 582.55 1073.14 583.35 1073.14C584.138 1073.16 587.138 1072.62 582.843 1071.96C578.533 1071.28 575.369 1070.72 575.369 1070.72L572.475 1070.31C572.475 1070.31 572.908 1068.43 573.725 1068.67C574.554 1068.89 575.757 1068.61 575.757 1068.61L571.879 1066.05L571.531 1063.61C571.531 1063.61 567.912 1063.65 568.653 1062.41C569.406 1061.17 571.205 1059.31 571.008 1058.77C570.81 1058.23 572.258 1057.13 571.75 1056.74C571.243 1056.36 570.256 1056.6 569.059 1055.3C567.858 1053.98 567.554 1051.95 567.554 1051.95L565.23 1052.39L563.934 1052.79L555.784 1048.42L554.393 1049.74L549.95 1047.39L545.485 1046.18L543.902 1044.78L542.537 1043.16L540.179 1044.16L541.252 1046.16L539.944 1046.58L541.527 1049.79L538.665 1047.2C538.665 1047.2 537.125 1048.44 536.784 1049.17C536.417 1049.91 535.968 1049.96 534.235 1049.88C532.524 1049.77 532.477 1051.14 532.477 1051.14C532.477 1051.14 533.708 1052.68 533.938 1054.26C534.168 1055.84 533.113 1059.02 531.468 1057.77C529.822 1056.52 528.823 1054.35 528.823 1054.35L526.884 1055.09C526.884 1055.09 525.473 1051.42 525.582 1050.7C525.706 1050 524.012 1049.1 524.012 1049.1L522.49 1049.76L521.982 1047.56C521.982 1047.56 520.185 1047.02 518.983 1047.29C517.764 1047.55 516.905 1047.92 516.905 1047.92L515.719 1043.38L513.793 1045.12L514.239 1041.63L513.843 1038.73L511.814 1037.19L511.954 1035.7C511.954 1035.7 509.507 1035.44 508.831 1035.34C508.122 1035.19 508.986 1034.05 508.986 1034.05L507.695 1032.87L502.189 1032.72L501.093 1033.87L498.584 1032.96C498.584 1032.96 497.046 1036.84 496.521 1036.22C495.984 1035.62 495.466 1031.83 495.466 1031.83L492.125 1032.49L489.83 1035.77L486.555 1037.72L487.89 1039.12L486.015 1041.34L488.445 1043.18L488.164 1048.79L486.208 1047.69L487.756 1051.75C487.756 1051.75 487.729 1051.76 487.675 1051.76C484.565 1051.8 478.599 1051.71 477.758 1052.81C476.917 1053.92 477.018 1056.28 475.682 1058.2C474.345 1060.12 472.646 1062.71 473.14 1065.22C473.235 1065.6 473.282 1066.05 473.264 1066.52L469.994 1066.9L468.734 1065.14L468.659 1062.88L467.541 1061.25L467.576 1061.11Z" fill="#F2EFEA"/>
<path d="M493.94 903.7L492.6 907.508C491.681 905.622 490.526 904.332 488.955 904.74C486.189 905.476 482.522 907.686 480.581 909.413C478.655 911.151 475.409 913.317 470.571 913.62C465.683 913.957 457.909 917.073 455.672 919.763C453.411 922.484 453.976 924.902 454.421 927.253C454.848 929.565 453.289 935.608 449.551 934.975C445.812 934.342 442.258 935.062 440.81 936.969C439.361 938.876 435.43 945.105 431.834 943.998C428.279 942.899 426.157 945.118 424.127 943.577C422.85 942.607 422.934 940.997 423.633 939.055C424.041 937.91 424.706 936.62 425.405 935.284C427.316 931.715 428.153 926.143 428.753 923.98C428.966 923.221 429.602 922.224 430.144 921.254L430.772 921.513L434.815 917.914C436.4 918.318 439.94 915.381 440.575 913.172C441.183 910.966 441.644 912.116 441.644 912.116C441.644 912.116 443.937 912.257 443.454 909.732C442.948 907.238 451.372 897.583 451.372 897.583L455.285 896.263L458.415 899.198L460.881 893.844L465.081 892.209L469.148 886.471L472.641 887.523L474.352 885.622C474.352 885.622 478.575 885.362 479.261 883.724C479.821 882.476 480.98 880.568 481.783 879.893C482.02 879.709 482.214 879.613 482.356 879.649C482.992 879.865 485.781 877.982 486.848 879.035C487.919 880.115 489.401 880.974 490.604 878.687L491.792 876.388L495.288 882.002C495.288 882.002 498.443 879.573 498.506 878.82C498.537 878.044 499.667 878.344 499.667 878.344L500.763 878.594C500.678 879.791 500.611 881.316 500.664 882.108C500.767 883.569 501.248 886.383 501.633 886.675C502.017 886.967 504.043 891.707 503.256 891.691C502.456 891.69 500.763 894.429 499.933 895.012C499.099 895.567 499.729 896.845 499.729 896.845L498.188 898.075L497.415 900.689L496.644 901.704L493.937 903.673L493.94 903.7Z" fill="#F2EFEA"/>
<path d="M386.563 951.081L387.707 950.374L387.975 948.807L388.816 947.7L389.079 946.299L391.174 945.489L390.923 943.553L394.529 944.424L396.298 941.743L397.18 942.146L400.43 938.698C401.913 939.363 404.428 940.522 405.439 940.053C406.283 939.676 407.881 937.349 408.946 935.659L411.8 938.191C411.426 939.29 411.054 940.898 411.776 941.447C412.791 942.218 414.314 942.161 413.851 942.61C413.358 943.036 411.051 944.509 412.632 944.886C414.202 945.278 419.738 945.748 420.209 946.372C420.665 946.985 418.784 947.036 419.402 948.839C419.604 949.404 419.89 949.985 420.2 950.439L418.494 952.684L418.979 953.61L417.867 954.245L415.813 955.352L416.362 957.248L413.433 961.328L413.551 962.897L412.056 964.866C412.011 964.638 411.915 964.444 411.808 964.362C411.454 964.094 410.59 963.316 410.59 963.316L402.498 961.996C402.498 961.996 402.562 962.966 402.488 963.734C402.456 964.51 401.088 964.683 401.088 964.683L402.752 972.422L400.399 971.241L399.885 971.918L397.798 972.879L396.447 975.199L395.098 972.186L393.569 972.092L391.088 971.687L391.018 970.567L389.789 969.342L388.948 970.45L388.145 969.719L388.192 968.444L387.192 967.685L387.461 967.332L386.313 966.193L383.819 964.687L382.182 964.001L384.768 961.139L388.486 959.405L385.647 956.981L385.723 955.827L385.113 953.884L386.378 952.857L386.524 951.1L386.54 951.112L386.563 951.081Z" fill="#F2EFEA"/>
<path d="M534.835 885.776C534.157 884.848 530.627 878.385 529.366 877.427C528.105 876.469 522.566 873.45 519.413 873.068C516.302 872.694 511.962 871.798 505.92 869.441C499.89 867.067 490.885 871.261 488.036 872.905C485.711 874.242 483.231 875.463 479.566 877.287C478.73 877.719 477.839 878.158 476.847 878.665C474.886 879.65 470.951 881.511 466.598 883.539C459.312 886.905 450.75 890.708 447.835 891.768C443.171 893.439 434.983 892.022 434.983 892.022C428.321 892.588 425.829 892.708 425.385 894.602C424.98 896.477 419.456 902.951 415.141 908.889C410.841 914.838 417.566 919.169 419.658 919.352C421.735 919.523 424.856 918.862 429.092 918.297C431.837 917.908 431.136 919.533 430.121 921.285L430.749 921.543L434.792 917.945C436.377 918.349 439.917 915.412 440.552 913.202C441.16 910.997 441.621 912.147 441.621 912.147C441.621 912.147 443.914 912.288 443.431 909.763C442.925 907.269 451.349 897.614 451.349 897.614L455.262 896.293L458.392 899.228L460.857 893.875L465.058 892.239L469.125 886.501L472.618 887.554L474.329 885.652C474.329 885.652 478.552 885.392 479.238 883.755C479.798 882.507 480.956 880.598 481.76 879.923C481.996 879.739 482.19 879.644 482.333 879.679C482.969 879.896 485.757 878.012 486.825 879.066C487.896 880.146 489.377 881.004 490.581 878.718L491.769 876.419L495.265 882.033C495.265 882.033 498.42 879.603 498.482 878.85C498.514 878.074 499.644 878.375 499.644 878.375L500.739 878.625L502.159 878.927L504.765 879.039C504.765 879.039 502.983 883.845 503.515 884.516C504.079 885.211 507.469 886.718 507.469 886.718L508.649 890.816L511.474 889.203C511.474 889.203 513.633 890.575 515.105 887.935C516.55 885.298 521.233 883.762 521.233 883.762L522.276 884.846L526.023 885.533L525.044 888.258L526.364 890.351C526.364 890.351 525.048 892.819 523.152 893.974C522.353 894.483 521.666 895.101 521.141 895.599L522.708 895.868L524.787 894.44L527.36 895.011L528.633 893.335L529.157 894.752L530.295 895.616L531.18 894.324C530.506 892.721 530.05 891.405 529.88 890.863C529.449 889.323 531.959 889.435 534.453 890.142C536.944 890.821 535.459 886.71 534.777 885.756L534.835 885.776Z" fill="#F2EFEA"/>
<path d="M416.077 938.02C415.994 938.224 415.905 938.374 415.753 938.478C415.059 939.041 413.041 938.697 413.356 937.579C413.664 936.503 413.917 935.628 413.563 935.359C413.24 935.114 412.554 936.848 412.238 937.263C412.133 937.401 411.961 937.756 411.788 938.207L408.934 935.675C409.441 934.848 409.812 934.135 409.926 933.858C410.267 933.026 409.728 931.501 410.192 930.762C410.656 930.023 412.132 927.41 413.532 926.364C414.906 925.321 415.814 925.211 417.185 925.355C418.582 925.494 424.506 924.974 423.458 926.482C422.41 927.989 419.535 929.54 419.639 930.201C419.731 930.878 419.958 932.941 420.143 933.082C420.143 933.082 418.749 934.182 417.909 934.586C417.03 935.009 414.876 934.684 414.549 935.114C414.222 935.545 415.469 935.691 415.884 936.007C416.207 936.252 416.39 937.288 416.085 937.978L416.077 938.02Z" fill="#F2EFEA"/>
<path d="M385.125 953.869L385.735 955.811L385.658 956.966L388.498 959.389L384.78 961.124L382.194 963.986L380.701 962.44L379.864 964.084L377.07 963.708L374.304 965.753L377.452 966.398L376.27 968.847L375.258 968.903L374.882 970.994L372.975 971.558L372.997 972.933L371.327 975.132L373.068 976.576L371.959 977.94C371.959 977.94 371.901 977.92 371.862 977.94C370.308 978.262 367.833 979.414 366.156 977.631C364.51 975.871 362.165 970.21 359.621 971.867C358.442 972.621 357.757 973.555 357.176 974.351C355.623 973.268 353.473 971.757 353.193 971.423C352.791 970.899 352.38 969.205 352.38 969.205L349.857 967.482L346.799 963.462C346.799 963.462 346.406 961.394 346.295 959.975C348.423 959.919 352.511 958.464 354.574 954.406C357.131 949.315 356.477 945.132 355.61 943.528C354.704 941.943 351.46 939.988 351.83 938.863C352.184 937.726 352.323 934.606 354.622 935.697C356.929 936.746 359.572 939.748 360.541 940.58C361.509 941.413 362.865 941.351 363.05 940.692C363.251 940.044 365.025 935.474 365.498 937.629C365.957 939.771 366.449 941.358 367.634 941.554C368.803 941.739 372.031 941.16 373.587 941.25C375.139 941.314 376.525 938.85 377.849 939.055C378.424 939.128 379.307 939.435 380.236 939.68L380.138 941.278L381.215 942.509L380.361 944.528L382.071 945.948L381.018 947.718L381.713 948.368L383.219 947.79L382.241 950.514L383.135 952.115L383.596 952.465L385.029 953.675L385.094 953.845L385.125 953.869Z" fill="#FF5500"/>
<path d="M400.395 938.744L397.145 942.192L396.263 941.789L394.494 944.471L390.888 943.599L391.139 945.536L389.044 946.346L388.781 947.746L387.963 948.822L387.49 947.178L388.721 946.1L388.62 944.956L387.727 943.866L385.696 941.814L385.107 942.046L383.707 941.783L383.079 940.215C383.369 940.216 383.601 940.199 383.829 940.154C385.623 939.771 389.968 937.978 390.709 937.449C391.43 936.882 392.536 936.097 392.71 936.666C392.892 937.192 391.414 938.882 392.107 939.408C392.799 939.934 393.199 939.438 393.628 938.745C394.03 938.056 394.171 936.562 395.187 936.534C396.218 936.517 398.48 938.041 399.57 938.457C399.775 938.539 400.052 938.653 400.391 938.813L400.395 938.744Z" fill="#F2EFEA"/>
<path d="M366.703 909.541L367.148 910.17C366.842 910.349 366.511 910.656 366.222 911.165C364.38 914.324 360.73 917.566 359.361 916.526C357.993 915.487 352.936 916.205 349.608 914.235C346.302 912.233 352.875 909.199 354.2 907.805C355.541 906.423 357.339 902.842 357.572 901.418C357.851 900.029 358.631 901.301 361.62 903.304C363.455 904.528 363.957 903.867 364.256 902.93C364.571 901.908 365.652 901.347 366.631 901.751C367.282 901.979 368.157 902.328 368.926 902.815L366.56 903.855L364.341 904.158L363.463 905.092L363.765 906.801L366.309 906.453L365.804 908.906L366.665 909.561L366.703 909.541Z" fill="#F2EFEA"/>
<path d="M381.988 928.498C383.492 929.519 383.98 933.09 381.486 933.597C378.961 934.08 375.826 933.833 376.422 934.964C377.033 936.107 379.331 937.295 376.636 937.14C373.938 936.958 370.25 935.491 368.96 934.22C367.643 932.953 363.825 929.519 362.986 930.24C362.163 930.973 361.238 931.871 360.138 930.478C359.038 929.085 358.582 929.175 357.535 929.18C356.458 929.162 355.152 927.369 356.434 927.277C357.714 927.157 361.711 925.246 363.215 926.267C364.719 927.288 367.863 929.119 367.268 927.987C366.657 926.844 364.394 925.417 364.236 924.763C364.074 924.083 362.058 922.842 362.425 922.199C362.815 921.526 364.001 920.826 365.184 921.216C366.376 921.563 368.899 920.157 368.488 919.166C368.046 918.151 368.543 915.74 369.481 916.453C370.419 917.165 371.74 919.768 373.005 918.838C374.258 917.922 375.924 916.399 375.398 915.175C375.398 915.175 374.726 912.676 375.267 912.699C375.819 912.706 378.06 911.862 377.276 911.266C376.492 910.671 373.794 909.689 373.548 909.502C373.302 909.315 373.168 907.734 374.273 907.142C375.416 906.531 377.064 905.383 376.388 904.869C375.711 904.355 374.229 905.508 373.617 905.165C373.197 904.919 373.466 903.959 373.979 903.282C374.493 902.606 373.089 902.412 373.049 902.018C372.96 901.368 374.36 901.025 375.499 901.09C376.653 901.166 376.03 900.232 375.406 899.807C374.687 899.285 374.906 898.869 376.167 898.518C377.429 898.166 378.677 897.32 378.418 896.735C378.171 896.135 376.768 893.736 377.945 893.272C379.13 892.765 380.895 892.676 380.192 893.475C379.511 894.243 379.79 894.674 380.638 894.323C381.513 893.97 382.943 893.237 382.943 893.237C384.408 892.361 384.797 889.965 386.095 890.683C387.392 891.402 393.285 894.786 391.535 895.494C389.823 896.183 386.657 896.615 386.272 897.123C385.886 897.63 385.659 897.579 387.608 898.525C389.544 899.487 392.465 901.293 391.157 902.313C389.846 903.305 384.802 905.221 383.877 906.119C382.921 906.994 381.192 908.76 381.745 909.98C382.282 911.188 382.809 916.657 382.802 917.209C382.779 917.75 384.061 919.766 383.884 920.19C383.716 920.571 381.763 923.525 381.998 924.238C382.276 924.958 381.394 925.767 381.148 926.793C380.899 927.792 380.499 927.488 381.972 928.486L381.988 928.498Z" fill="#F2EFEA"/>
<path d="M370.978 905.829C370.547 911.442 368.807 909.199 367.163 910.182L366.719 909.553L365.858 908.899L366.363 906.446L363.82 906.793L363.517 905.084L364.396 904.151L366.614 903.848L368.981 902.808C370.135 903.491 371.107 904.447 370.99 905.813L370.978 905.829Z" fill="#F2EFEA"/>
<path d="M382.746 889.983C382.641 890.218 382.335 890.302 382.103 890.416C381.437 890.686 381.016 891.336 380.418 891.707C380.345 891.773 380.228 891.83 380.093 891.848C379.888 891.863 379.688 891.711 379.543 891.551C379.108 891.197 378.652 890.681 378.817 890.176C378.884 890.057 378.954 889.964 379.035 889.857C379.324 889.445 379.67 889.053 380.104 888.801C380.553 888.56 381.076 888.448 381.538 888.605C381.842 888.715 382.077 888.917 382.323 889.104C382.615 889.326 382.922 889.656 382.762 889.995L382.746 889.983Z" fill="#F2EFEA"/>
<path d="M377.65 891.617C377.392 892.052 376.518 892.309 376.092 892.519C375.937 892.595 375.77 892.687 375.6 892.655C375.319 892.611 375.189 892.27 375.218 891.977C375.315 891.371 375.805 890.725 376.328 890.516C376.603 890.41 377.149 890.17 377.455 890.596C377.75 891.038 377.65 891.617 377.65 891.617Z" fill="#F2EFEA"/>
<path d="M516.226 667.751C526.194 670.496 520.602 683.127 510.611 686.766C500.621 690.406 468.8 692.137 458.692 710.746C444.471 736.877 414.257 766.09 401.231 781.101C388.232 796.108 372.281 789.62 360.173 784.425C348.054 779.245 334.075 787.082 324.611 787.921C315.147 788.76 296.237 807.304 288.315 806.113C280.393 804.922 287.426 762.904 291.327 751.414C295.228 739.924 312.684 730.702 320.03 721.029C327.377 711.356 324.753 702.136 332.959 675.463C341.166 648.789 332.835 654.489 321.872 647.788C321.872 647.788 319.964 647.139 317.045 642.521C314.126 637.903 317.76 631.012 321.088 628.738C324.427 626.448 327.633 623.281 322.978 612.52C318.308 601.746 332.355 604.388 347.695 606.413C363.02 608.425 358.995 598.942 363.388 591.051C367.781 583.16 380.706 580.924 392.357 579.346C404.008 577.767 419.313 582.966 436.668 586.52C454.039 590.086 473.768 584.192 494.794 594.535C515.835 604.89 501.176 617.836 504.659 633.334C508.141 648.831 484.457 632.443 476.531 634.45C468.589 636.445 494.866 645.174 499.723 647.239C504.57 649.319 496.452 660.007 496.158 664.609C495.863 669.212 506.251 665.049 516.218 667.794L516.226 667.751Z" fill="#F2EFEA"/>
<path d="M392.423 836.758C390.399 838.688 388.729 840.887 384.359 839.969C379.958 839.027 371.046 840.575 369.71 838.47C368.348 836.368 367.53 833.614 366.25 832.107C364.996 830.597 360.222 828.038 361.037 827.348C361.861 826.615 364.533 827.311 365.304 826.296C366.075 825.281 367.982 823.505 365.937 821.951C363.891 820.398 360.884 816.247 363.848 817.964C366.815 819.709 369.838 820.646 369.803 819.287C369.757 817.942 366.988 816.639 366.143 815.997C365.297 815.354 363.05 814.449 366.346 812.951C369.623 811.414 372.405 810.593 373.35 810.753C374.288 810.956 376.271 813.262 375.324 815.21C374.378 817.159 373.573 822.465 375.706 820.326C377.871 818.211 379.688 817.191 379.352 819.07C378.989 820.953 377.357 821.314 380.268 820.323C383.178 819.333 384.333 819.919 385.029 821.781C385.744 823.682 386.209 825.878 387.365 824.356C388.522 822.834 391.207 821.405 391.76 823.135C392.291 824.896 393.428 826.559 393.599 828.824C393.767 831.061 392.408 836.746 392.408 836.746L392.423 836.758Z" fill="#F2EFEA"/>
<path d="M52.443 981.52L49.6305 979.092L52.9103 975.157L50.6169 975.016L47.9646 973.559L47.3669 971.505L45.6752 970.22L47.4449 967.539L48.0099 962.899L51.6965 961.941C51.6965 961.941 54.8143 959.241 56.4834 959.15C58.1524 959.06 64.0136 961.911 64.0136 961.911L65.3887 961.889L68.6817 958.958L72.2089 955.623L72.4098 951.144L73.5662 949.621L75.8729 951.373L75.8759 948.975L76.7402 947.837L80.2784 950.33L84.5765 951.727L84.6099 952.577C84.6099 952.577 82.1815 954.976 83.9015 956.671C85.6216 958.365 90.457 959.661 91.0706 959.109C91.6725 958.572 95.0422 958.924 95.0422 958.924L95.0737 957.542L93.6142 956.845L95.0033 954.506L94.542 950.324L98.6745 955.451L100.863 955.731L103.185 956.888C103.185 956.888 105.94 957.986 106.418 957.356C106.699 956.987 106.98 956.521 107.149 956.043L109.044 958.113L107.351 959.034L108.009 961.328L105.147 963.786L103.774 967.957L104.835 970.775L107.697 970.742L111.846 973.07L113.606 974.042L114.761 973.319L118.067 975.83L118.894 977.647L122.784 980.188L129.994 976.474C130.466 978.311 130.576 979.923 130.209 981.172C128.56 986.855 126.141 991.444 130.382 997.866C134.607 1004.28 140.772 1015 144.347 1017.86C152.2 1024.09 157.151 1042.57 145.843 1044.43C125.905 1047.69 128.605 1049.5 119.073 1057.81C109.568 1066.11 105.147 1071.58 89.372 1064.15C74.7023 1057.26 74.6887 1069.05 65.7465 1072.4C58.6546 1075.06 50.9962 1077.52 45.3933 1078.57L48.1378 1073.74L46.5282 1065.3L45.2744 1063.79L44.7862 1060.21L42.7667 1058.85L43.5968 1058.27L52.1298 1056.16L58.7212 1057.7L62.427 1053.56L61.0853 1051.91L64.9399 1047.44L62.3174 1044.89L64.7268 1042.45L64.3381 1038.4L59.417 1034.66L63.3592 1029.12C63.3592 1029.12 63.7096 1028.66 64.2463 1028.05C65.0203 1027.16 66.1939 1025.96 67.1311 1025.56C68.7188 1024.87 69.2952 1023.44 69.2952 1023.44L68.9355 1019.7L70.4773 1017.67L65.5815 1014.22L67.2227 1011.71L66.8754 1010.38L68.4043 1010.47L70.5776 1006.21L67.5644 1003.12L65.7818 997.737L63.1069 994.905L62.0016 992.465L66.0587 986.453L62.9984 984.129L55.1983 983.83L52.4971 981.512L52.443 981.52Z" fill="#F2EFEA"/>
<path d="M84.5339 951.719L84.4042 948.25L86.3285 948.111L86.868 944.495L89.9918 941.436L91.6852 940.516L86.6874 937.326L86.0476 932.645L81.9723 929.55C80.173 928.183 82.6842 924.877 82.6842 924.877L84.5593 922.663C84.5593 922.663 82.3767 920.812 83.7602 920.044C85.1321 919.291 87.8235 918.11 87.8235 918.11L92.0378 917.382C95.6008 920.258 97.3223 922.972 97.3223 922.972C99.3431 926.665 99.3174 930.914 107.127 934.711C112.056 937.097 114.359 944.06 116.251 949.837L112.571 949.734C112.571 949.734 110.97 953.15 110.492 953.781C110.013 954.411 106.832 952.82 106.832 952.82C106.832 952.82 107.212 953.884 107.322 954.793C107.378 955.199 107.31 955.608 107.129 956.004C106.96 956.482 106.68 956.948 106.399 957.317C105.92 957.947 103.165 956.849 103.165 956.849L100.844 955.692L98.6553 955.412L94.5228 950.285L94.9841 954.467L93.5949 956.807L95.0545 957.503L95.023 958.886C95.023 958.886 91.6533 958.533 91.0514 959.07C90.4378 959.623 85.6023 958.326 83.8823 956.632C82.1622 954.938 84.5907 952.538 84.5907 952.538L84.5572 951.689L84.5339 951.719Z" fill="#F2EFEA"/>
<path d="M84.534 951.719L80.236 950.322L76.6977 947.829L75.8334 948.967L75.8305 951.365L73.5237 949.613L72.3674 951.136L72.1664 955.615L68.6392 958.95L65.3462 961.881L63.6456 959.522L67.0817 957.84L65.3965 955.493L60.3063 951.627L60.9236 947.27L60.2534 945.694L60.1035 942.379L58.3054 940.819C58.4331 940.14 58.3056 939.51 57.6449 938.911C55.7551 937.185 53.6257 936.125 54.0952 935.124C54.416 934.446 53.0478 930.788 52.2372 928.79C56.3225 928.328 61.7988 925.843 64.2433 921.443C67.1875 916.162 75.373 915.953 78.3495 915.546C81.3259 915.139 87.2361 913.711 91.296 916.795C91.5575 916.993 91.8035 917.18 92.0379 917.382L87.8236 918.11C87.8236 918.11 85.1438 919.276 83.7603 920.044C82.3768 920.812 84.5594 922.663 84.5594 922.663L82.6843 924.877C82.6843 924.877 80.1731 928.183 81.9724 929.55L86.0477 932.645L86.6875 937.326L91.6853 940.516L89.9919 941.436L86.8681 944.496L86.3286 948.111L84.4043 948.25L84.534 951.719Z" fill="#F2EFEA"/>
<path d="M120.502 909.854C120.944 910.868 120.031 911.145 118.978 910.903C117.883 910.653 117.143 909.679 116.57 908.71C116.344 908.369 116.162 907.842 116.476 907.62C116.662 907.471 116.94 907.488 117.125 907.531C118.507 907.756 119.776 908.575 120.557 909.75L120.545 909.862L120.502 909.854Z" fill="#F2EFEA"/>
<path d="M115.53 905.034C115.655 905.348 115.757 905.789 115.497 906.003C115.26 906.187 114.929 906.081 114.651 905.967C111.292 904.483 108.098 902.687 105.094 900.576L108.919 895.188C111.667 898.051 113.914 901.382 115.515 905.023L115.53 905.034Z" fill="#F2EFEA"/>
<path d="M51.6412 983.821L51.2312 986.468L49.7588 987.895L47.119 991.371L45.2816 991.843L43.7398 993.873L42.148 995.234L42.9806 996.788L40.6541 997.009L38.201 999.026L35.5475 999.678L33.3522 998.641C34.0191 995.656 33.9439 992.786 32.8822 990.161C25.9945 973.144 33.7874 952.316 32.9609 948.487C32.119 944.647 37.3783 938.456 38.9318 936.411C39.107 936.18 39.3056 935.919 39.597 935.631L40.3612 936.987L39.4373 940.311L37.2124 942.889L40.2663 946.276C40.2663 946.276 43.0356 944.353 44.8659 944.434C46.7041 944.472 49.7619 944.661 50.2694 945.046C50.7769 945.432 56.9396 945.044 56.9461 943.982C56.9618 943.291 58.0586 942.038 58.2747 940.796L60.0729 942.356L60.2227 945.67L60.8929 947.246L60.2756 951.603L65.3659 955.469L67.051 957.816L63.615 959.499L65.3155 961.857L63.9404 961.88C63.9404 961.88 58.0792 959.029 56.4102 959.119C54.7411 959.209 51.6233 961.91 51.6233 961.91L47.9368 962.868L47.3718 967.507L45.6021 970.189L47.2937 971.473L47.8915 973.528L50.5438 974.985L52.8372 975.126L49.5573 979.061L52.3699 981.488L51.5834 983.801L51.6412 983.821Z" fill="#F2EFEA"/>
<path d="M58.3209 940.831C58.1048 942.073 57.008 943.326 56.9922 944.017C56.9858 945.079 50.8231 945.467 50.3156 945.081C49.8081 944.696 46.7232 944.511 44.912 944.469C43.0818 944.388 40.3125 946.311 40.3125 946.311L37.2586 942.924L39.4834 940.346L40.4074 937.022L39.6431 935.666C41.7167 933.191 46.5381 928.535 50.0934 928.835C50.7613 928.881 51.5067 928.89 52.2798 928.798C53.1057 930.807 54.4703 934.439 54.1378 935.132C53.6682 936.133 55.7823 937.181 57.6874 938.919C58.3481 939.518 58.491 940.16 58.348 940.827L58.3209 940.831Z" fill="#F2EFEA"/>
<path d="M72.0244 915.956L66.5301 918.209C66.7955 915.21 69.6442 913.566 67.4463 911.703C65.2446 909.812 63.1372 910.224 63.1372 910.224C63.1372 910.224 60.0706 915.316 58.6877 910.24C57.9809 907.69 57.1174 905.507 56.2866 903.663L59.2951 901.777C60.7677 904.787 62.9367 906.338 66.8006 907.987C71.0612 909.817 72.0053 915.917 72.0053 915.917L72.0244 915.956Z" fill="#F2EFEA"/>
<path d="M105.942 892.466C107.007 893.299 107.99 894.24 108.923 895.215L105.098 900.603C102.817 899.04 100.664 897.308 98.652 895.392C98.9433 894.498 100.257 894.428 101.092 894.893C101.927 895.358 102.521 896.173 103.403 896.576C104.27 896.967 105.604 896.647 105.668 895.701C105.041 895.249 104.411 894.77 104.029 894.092C103.662 893.426 103.66 892.502 104.192 891.961C104.736 891.404 105.875 891.566 106.044 892.301L105.939 892.439L105.942 892.466Z" fill="#F2EFEA"/>
<path d="M103.214 889.545C103.149 890.174 102.443 890.56 101.791 890.525C101.138 890.49 100.569 890.155 100.049 889.785C98.1918 888.495 96.4509 887.051 94.8889 885.404C94.3783 884.895 93.9108 884.298 93.7992 883.582C93.6772 882.69 94.2617 881.824 94.3408 880.89C94.4687 878.902 92.3171 877.68 90.947 876.227C89.5155 874.727 88.8906 872.676 88.029 870.81C87.1675 868.943 85.916 867.047 83.9306 866.436C82.5621 866.003 80.5092 865.704 80.6877 864.288C80.8251 863.277 82.1983 862.938 83.1541 863.276C84.1407 863.637 84.9047 864.387 85.9109 864.69C87.507 865.175 89.4698 864.411 90.8194 865.412C92.2767 866.494 91.9533 868.867 93.0374 870.346C93.7117 871.246 94.7906 871.677 95.7022 872.297C98.0674 873.972 99.131 876.914 100.076 879.693C101.066 882.7 102.067 885.691 103.072 888.71C103.164 888.973 103.243 889.252 103.214 889.545Z" fill="#F2EFEA"/>
<path d="M91.8287 891.349C89.8433 890.739 88.3249 888.906 88.0555 886.835L88.3937 886.485C89.6316 886.164 91.0265 886.69 91.7771 887.745C92.5278 888.8 92.5264 890.303 91.8287 891.349Z" fill="#F2EFEA"/>
<path d="M59.2988 901.804L56.2902 903.69C55.4785 901.886 54.7265 900.417 54.22 899.232C53.2224 896.874 50.5644 895.074 51.6273 893.674C52.1413 892.997 52.561 891.934 52.7722 890.858L56.7433 893.292L57.495 895.463L59.6476 895.886C58.4747 897.589 58.1252 899.167 58.9136 901.003C59.0201 901.277 59.169 901.56 59.2988 901.804Z" fill="#F2EFEA"/>
<path d="M68.2254 885.741C67.7701 886.947 66.773 888.324 64.9661 890.128C62.623 892.447 60.7737 894.243 59.6746 895.882L57.522 895.459L56.7704 893.288L52.7993 890.854C53.0652 889.674 53.0494 888.449 52.6488 887.636C52.2673 886.861 52.5266 886.136 52.8824 885.412L56.3082 882.243L57.9222 882.959L59.5287 883.622L63.2153 882.663L64.3524 884.327L68.2137 885.756L68.2254 885.741Z" fill="#F2EFEA"/>
<path d="M68.2255 885.741L64.3641 884.312L63.227 882.648L59.5405 883.607L57.9339 882.944L56.3199 882.228L52.8942 885.397C53.2703 884.519 53.7158 883.645 53.3429 882.731C53.2364 882.456 52.9644 882.08 52.6039 881.66L53.7301 880.018L52.2141 877.8L50.955 875.243L54.078 873.589L54.8925 872.389L57.8639 873.458C57.912 873.81 58.1378 874.151 58.5838 874.49C60.4907 875.938 66.4428 878.446 67.5788 880.909C68.2995 882.451 68.9788 883.791 68.2292 885.768L68.2255 885.741Z" fill="#F2EFEA"/>
<path d="M65.7637 856.033C68.4241 858.053 75.0706 860.701 72.4346 862.288C70.3489 863.565 65.9031 865.523 63.0022 867.491L61.5097 865.848L58.0258 865.869L54.2734 863.019L51.7928 863.827L52.8671 869.469L50.7682 869.742L48.6911 868.965L46.3074 867.154L44.155 869.254C43.3949 865.306 43.3515 860.35 40.5302 859.371C37.0385 858.126 21.0631 842.985 20.6394 833.23C20.2157 823.475 24.5524 826.769 24.861 822.372C25.177 818.029 24.3383 786.886 24.9732 781.548C25.6044 776.183 21.5434 773.899 20.5992 781.209C19.655 788.518 17.7204 806.934 17.9645 808.719C18.2086 810.505 16.3152 815.105 15.2867 808.286C14.2428 801.455 17.3094 796.364 15.3433 794.482C13.3889 792.586 11.929 786.845 12.7473 786.279C13.5657 785.712 16.0853 787.407 16.2731 786.362C16.4567 785.386 18.4634 773.548 18.198 768.279L24.6252 772.045L30.2876 782.214L38.6299 789.908L39.561 787.947L44.3536 791.854L44.4067 794.562C44.4067 794.562 45.4649 797.766 45.2305 799.48C45.0078 801.178 44.3957 806.581 46.2106 806.65C48.0488 806.689 50.4771 805.599 50.4771 805.599L52.8607 807.409L51.7231 823.69L55.3437 827.894C55.1918 828.094 55.0363 828.267 54.8235 828.324C53.4221 828.86 46.9364 834.749 45.9829 837.856C45.0527 840.933 42.1926 847.636 43.5109 850.626C44.8599 853.639 49.5188 858.584 52.723 858.835C55.9696 859.094 59.4882 859.729 60.9365 857.823C62.3848 855.916 63.022 854.023 65.6825 856.044L65.7637 856.033Z" fill="#F2EFEA"/>
<path d="M53.7263 879.991L52.6001 881.633C51.4195 880.155 49.0849 877.897 47.2527 875.583L50.9358 875.204L52.1949 877.761L53.7109 879.979L53.7263 879.991Z" fill="#F2EFEA"/>
<path d="M61.5249 865.86L63.0174 867.503C62.2341 868.023 61.5664 868.583 61.0727 869.105C59.323 871.026 57.7201 872.306 57.8754 873.443L54.9041 872.374L55.9878 870.724L58.068 865.878L61.552 865.856L61.5249 865.86Z" fill="#F2EFEA"/>
<path d="M54.8617 872.366L54.0472 873.566L50.9242 875.219L47.2411 875.599C46.229 874.345 45.3369 873.061 44.8882 871.896C44.5878 871.11 44.3576 870.232 44.1857 869.277L46.3381 867.177L48.7218 868.988L50.7988 869.765L52.8977 869.492L51.8235 863.85L54.3041 863.043L58.0564 865.893L55.9762 870.739L54.8925 872.389L54.8617 872.366Z" fill="#F2EFEA"/>
<path d="M226.58 840.558C226.371 842.557 224.791 846.425 223.074 847.28C221.343 848.123 220.021 843.893 218.016 842.638C216.011 841.382 216.838 840.676 217.81 839.014C218.797 837.363 215.129 837.244 211.698 835.439C208.253 833.622 209.17 831.36 209.293 830.144C209.44 828.898 222.062 823.231 225.963 821.926C225.963 821.926 229.555 822.496 230.301 823.621C231.071 824.715 224.662 826.831 223.389 828.507C222.116 830.183 225.877 832.288 228.26 834.098C230.644 835.909 226.735 838.566 226.564 840.546L226.58 840.558Z" fill="#FF5500"/>
<path d="M233.926 808.695C234.755 811.435 237.198 818.116 232.618 819.197C228.039 820.278 218.061 821.793 214.223 819.12C210.361 816.478 203.83 808.826 198.636 808.64C193.427 808.442 183.756 807.766 183.878 808.659C183.911 808.902 184.103 809.193 184.456 809.462L181.926 812.123C181.926 812.123 176.249 814.649 175.54 814.912C174.801 815.15 172.066 817.219 172.066 817.219C172.066 817.219 171.322 816.921 170.661 816.419C169.999 815.917 168.735 816.848 168.735 816.848L160 810.213C160 810.213 157.468 810.546 156.331 810.095C155.222 809.64 151.043 811.438 151.043 811.438L144.963 807.087L143.32 809.985L133.666 807.721C133.666 807.721 131.423 806.939 130.691 806.019C129.94 805.061 131.593 803.746 131.593 803.746C131.593 803.746 134.026 803.193 134.934 803.082C135.827 802.96 138.21 799.823 138.21 799.823L141.325 793.774L140.101 789.766L140.434 787.06L139.51 785.436L134.94 770.859L131.325 770.127L129.936 769.338L127.588 766.076L125.658 765.967L125.571 763.622L123.902 763.713L123.805 760.68L119.483 757.398L120.852 754L118.868 754.505L46.1441 699.683L43.11 702.593L40.3512 698.945C40.6847 697.453 40.7137 695.85 40.2679 694.202C38.9067 689.385 35.1904 681.858 36.8225 681.497C38.4238 681.113 40.2988 684.647 41.0483 680.148C41.7824 675.637 42.2705 669.024 42.7135 663.492C42.7797 662.766 42.8163 661.824 42.8344 660.747L47.6646 659.08L52.0363 655.975L48.6352 649.342L50.88 635.818L50.144 630.433L51.4534 626.602L47.5593 624.833L46.0175 626.863L41.9537 626.977L43.234 624.748L42.5646 619.851L44.5172 615.684L39.9151 615.389L38.8845 614L37.9499 612.709L83.298 553.959C83.5756 554.68 84.0192 555.404 84.7371 556.119C88.3039 559.629 88.6836 568.356 94.5018 569.38C100.374 570.397 105.488 569.698 110.316 571.546C115.133 573.41 115.548 573.119 116.072 574.536C116.609 575.937 118.39 577.072 119.687 575.875C120.996 574.662 123.488 572.723 122.547 576.834C121.622 580.957 118.495 587.215 122.371 585.527C126.255 583.894 130.009 581.313 128.531 585.622C127.076 589.901 127.751 590.608 130.002 589.528C132.237 588.437 134.399 592.456 135.307 594.964C136.211 597.445 137.305 600.507 139.437 604.309C141.557 608.126 144.435 609.318 145.652 612.473C146.295 614.149 146.965 615.725 147.012 616.78C147.026 617.687 146.533 618.21 145.062 618.039C141.909 617.656 137.725 617.898 141.677 620.899C145.629 623.901 154.602 626.327 154.857 628.897C155.076 631.513 155.312 637.269 158.376 634.577C161.424 631.872 159.365 629.314 161.274 629.164C163.183 629.013 170.013 628.769 169.908 631.526C169.841 634.264 168.178 637.22 173.035 642.51C177.847 647.765 180.036 650.47 182.154 650.842C184.26 651.229 186.172 646.861 187.989 648.46C188.942 649.28 190.431 650.193 191.413 651.23C192.346 652.205 192.838 653.282 192 654.513C190.293 657.048 187.801 664.128 189.749 661.436C192.674 657.425 192.694 656.665 197.924 657.824C199.799 658.229 204.48 654.971 203.839 651.089C203.806 650.846 203.746 650.606 203.674 650.381L209.823 654.034C211.468 656.083 212.574 656.511 210.647 659.048C208.719 661.586 205.717 666.337 208.565 664.694C211.403 663.066 215.124 657.623 215.679 661.682C216.226 665.687 215.878 666.465 213.195 669.422C210.516 672.407 208.381 679.176 213.142 677.409C217.943 675.623 222.346 671.135 223.425 671.566C224.515 671.982 224.426 666.289 226.153 665.612C227.276 665.155 230.609 665.044 232.809 666.714C234.008 667.625 234.88 669.063 234.905 671.265C234.975 677.526 231.652 678.421 229.847 680.033C228.014 681.648 229.734 688.386 225.458 689.77C221.22 691.135 218.376 691.399 215.452 690.779C212.528 690.159 211.655 688.914 210.116 686.726C208.565 684.554 208.994 684.468 207.654 687.063C206.915 688.514 205.537 689.626 204.243 690.244C203.205 690.717 202.219 690.865 201.51 690.617C199.957 690.044 199.158 690.043 197.668 686.705C196.178 683.366 194.532 682.117 195.948 685.01C197.39 687.9 198.294 690.382 199.186 691.059C200.078 691.737 201.385 692.123 198.922 693.259C196.459 694.395 192.901 697.707 190.117 695.593C187.334 693.479 186.901 695.357 185.101 694.79C183.316 694.234 182.228 692.219 182.286 693.452C182.344 694.684 183.372 697.066 180.655 697.451C180.655 697.451 177.037 696.691 174.682 697.11C172.358 697.551 164.796 700.611 161.736 703.331C158.688 706.035 156.008 707.201 155.895 713.129C155.77 719.072 158.39 732.289 161.868 737.768C165.353 743.204 173.794 750.609 171.546 755.133C169.313 759.67 163.328 773.36 166.221 775.363C169.097 777.354 176.615 771.448 176.955 766.274C177.264 761.077 177.851 761.135 183.174 761.758C188.5 762.409 195.638 757.767 195.45 750.64C195.269 743.47 198.144 745.241 202.12 741.059C206.12 736.846 205.047 734.843 207.494 731.876C209.941 728.909 213.393 723.311 216.207 728.067C219.033 732.807 222.837 731.502 224.064 736.241C225.279 740.995 223.946 746.166 225.835 749.202C227.756 752.261 226.355 751.997 223.97 755.617C221.599 759.249 219.011 764.509 223.313 766.54C227.576 768.589 234.826 764.056 236.717 763.674C238.596 763.307 238.416 764.407 238.416 764.407C236.892 771.01 235.304 779.455 234.066 784.916C232.847 790.416 231.358 798.379 232.94 801.181C234.553 804.007 233.128 805.883 233.964 808.676L233.926 808.695Z" fill="#FF5500"/>
<path d="M202.797 831.322C203.287 832.785 205.441 837.355 199.684 836.474C193.939 835.578 188.885 835.208 187.16 834.989C185.462 834.766 178.56 835.392 179.623 833.29C180.725 831.169 183.043 829.17 185.068 829.665C187.104 830.145 190.992 828.539 187.286 828.149C185.858 827.986 183.144 827.186 180.199 826.307L181.474 822.935L180.275 822.024L184.684 815.867L184.208 814.196L182.742 813.858L181.887 812.142L184.418 809.481C185.248 810.112 186.94 810.693 188.987 810.744C191.872 810.777 200.17 813.612 199.399 814.627C198.628 815.642 196.661 817.882 194.825 819.98C192.97 822.039 191.394 822.709 192.885 824.642C194.345 826.551 194.219 828.856 195.432 830.068C196.672 831.277 202.242 829.881 202.759 831.341L202.797 831.322Z" fill="#FF5500"/>
<path d="M207.681 819.656C207.558 820.072 207.251 820.445 206.848 820.624C205.876 821.074 204.757 820.345 204.028 819.549C202.643 817.988 201.86 815.89 201.849 813.796C201.845 813.163 202.054 813.176 201.744 812.625C202.024 812.353 202.344 811.868 202.64 812.117C203.428 812.74 204.212 813.336 204.988 813.974C205.238 814.188 205.5 814.386 205.648 814.669C205.801 814.979 205.81 815.35 205.897 815.682C206.275 817.133 208.049 818.214 207.654 819.66L207.681 819.656Z" fill="#FF5500"/>
<path d="M399.065 548.26C408.322 559.316 401.513 566.173 393.816 569.954C386.119 573.735 367.435 577.198 362.188 578.839C362.188 578.839 332.75 583.785 331.311 589.895C329.86 596.019 313.222 601.036 306.822 601.001C300.423 600.966 296.289 610.655 293.057 613.825C289.839 617.008 279.151 608.89 273.569 601.425C267.991 593.987 261.186 597.646 258.213 602.614C255.24 607.583 267.501 610.469 277.559 617.308C287.618 624.147 275.303 630.847 272.085 634.03C270.943 635.15 267.219 632.71 262.747 628.828C254.706 621.824 244.263 610.158 242.346 606.616C241.593 605.244 241.732 604.04 242.388 602.889C244.289 599.46 250.526 596.388 249.605 589.651C248.381 580.694 247.122 578.137 249.832 574.57C252.542 571.002 254.628 583.038 258.947 587.919C263.267 592.8 272.628 587.882 278.26 585.734C283.908 583.598 281.005 575.767 274.919 567.943C268.818 560.108 274.375 553.877 275.566 545.955C276.757 538.033 285.256 530.036 292.076 523.163C298.896 516.291 304.479 523.756 301.364 531.018C299.158 536.157 303.131 544.751 309.923 551.486C312.779 554.334 316.12 556.799 319.732 558.621C331.962 564.709 328.322 554.718 317.615 549.787C315.94 549.023 314.597 548.173 313.509 547.274C307.648 542.507 309.594 536.274 310.057 531.194C310.599 525.18 314.851 519.582 317.561 516.014C320.271 512.446 357.675 519.2 368.028 521.437C376.533 523.266 389.789 537.165 399.073 548.218L399.065 548.26Z" fill="#FF5500"/>
<path d="M272.066 723.933C274.098 745.554 261.777 735.372 261.171 727.71C260.576 720.032 253.878 727.797 252.546 738.012C251.213 748.228 244.271 754.207 238.532 752.249C232.793 750.29 238.813 727.582 221.737 719.414C218.771 717.986 217.627 716.875 217.791 715.956C218.305 712.758 234.627 712.084 244.684 710.337C257.609 708.102 250.334 684.923 249.094 679.18C247.865 673.518 241.969 672.022 233.922 665.28C233.753 665.152 233.611 665.019 233.441 664.891C225.169 657.808 226.497 650.79 226.147 644.898C225.796 639.006 241.207 628.231 247.24 625.587C247.24 625.587 248.763 626.743 249.915 628.419C251.067 630.094 251.281 635.082 253.727 632.914C254.896 631.886 256.884 632.014 259.037 633.649C261.344 635.401 263.829 638.865 265.784 644.497C269.561 655.392 268.672 652.316 269.652 659.487C270.633 666.657 273.222 682.277 275.229 690.203C277.224 698.144 270.05 702.322 272.081 723.944L272.066 723.933Z" fill="#FF5500"/>
<path d="M246.821 694.816C247.381 696.697 246.058 698.311 244.787 699.601C243.244 701.217 240.92 702.872 238.718 702.387C237.95 702.217 237.352 701.471 237.195 700.721L236.632 697.918C237.53 695.81 238.559 693.561 240.636 692.519C242.716 691.504 246.124 692.444 246.809 694.831L246.821 694.816Z" fill="#FF5500"/>
<path d="M211.662 712.053C210.637 716.052 208.047 714.642 206.786 713.684C205.263 712.528 202.974 709.189 200.031 710.955C197.078 712.737 193.419 705.933 194.083 700.811C194.695 696.111 200.447 695.339 204.222 691.804C204.408 691.655 204.568 691.509 204.777 691.425C205.373 691.151 206.042 691.101 206.708 691.34L207.433 691.6C208.608 692.032 209.56 693.142 209.398 694.377C208.066 703.793 212.271 703.397 212.075 708.827C212.036 710.155 211.918 711.205 211.67 712.011L211.662 712.053Z" fill="#FF5500"/>
<path d="M239.647 616.012C241.34 617.71 244.804 617.14 237.812 621.845C230.792 626.553 231.344 627.966 227.944 625.578C224.533 623.205 224.319 620.836 223.606 623.084C222.886 625.373 222.144 626.605 219.494 627.987C217.91 628.796 216.963 628.223 216.683 628.592L214.978 626.909C216.926 624.727 217.438 623.127 218.833 621.035C219.519 620.004 220.43 618.901 221.813 617.526C226.491 612.932 230.107 607.118 234.021 609.945L234.129 610.027C238.081 613.029 237.911 614.306 239.631 616.001L239.647 616.012Z" fill="#FF5500"/>
<path d="M209.801 653.968L203.651 650.316C202.649 646.814 198.797 644.446 202.698 639.31C206.844 633.851 209.555 632.102 213.804 628.103C214.255 627.669 214.643 627.286 214.993 626.921L216.698 628.603C216.499 628.865 216.584 629.584 217.016 631.537C218.015 636.321 217.084 644.634 214.327 646.954C211.583 649.259 208.168 651.903 209.812 653.953L209.801 653.968Z" fill="#FF5500"/>
<path d="M241.163 602.202C239.385 605.629 238.019 606.119 236.973 605.325C235.697 604.355 234.841 601.523 234.117 599.858C232.765 596.721 236.035 593.821 241.408 593.1C241.408 593.1 245.847 592.204 241.617 601.286C241.457 601.625 241.32 601.933 241.167 602.229L241.163 602.202Z" fill="#FF5500"/>
<path d="M196.911 648.494C196.295 651.955 194.694 652.339 192.492 651.662C192.149 651.571 191.814 651.341 191.511 651.038C189.91 649.41 188.965 645.515 188.327 643.576C187.99 642.616 188.128 642.115 188.519 641.854C189.062 641.491 190.112 641.609 191.143 641.689C192.93 641.858 194.423 638.966 196.148 637.876C196.148 637.876 197.777 638.094 197.699 640.751C197.649 641.998 197.538 645.018 196.938 648.491L196.911 648.494Z" fill="#FF5500"/>
<path d="M266.694 555.561C269.122 562.231 262.439 566.782 258.364 563.687C254.289 560.592 260.833 552.71 261.589 549.575C261.589 549.575 264.255 548.907 266.679 555.549L266.694 555.561Z" fill="#FF5500"/>
<path d="M218.161 616.62C218.404 617.896 218.046 619.006 217.287 620.006C215.079 622.912 209.353 624.673 205.411 625.681C200.134 627.008 201.523 621.637 202.006 613.977C202.277 609.405 201.904 607.182 202.546 606.336C202.99 605.752 203.921 605.804 205.788 606.155C209.549 606.854 209.629 605.12 210.394 602.549C210.738 601.33 211.966 600.639 213.193 600.843C215.627 601.31 220.845 599.549 223.807 602.163C228.29 606.126 217.168 611.574 218.173 616.604L218.161 616.62Z" fill="#FF5500"/>
<path d="M239.645 573.55C243.477 574.859 242.088 580.231 236.155 588.044C230.221 595.856 225.49 590.08 225.34 586.765C225.191 583.45 225.635 582.163 222.574 579.839C219.514 577.514 226.113 570.232 227.002 565.548C227.002 565.548 229.117 567.712 229.023 569.241C228.929 570.77 235.83 572.252 239.645 573.55Z" fill="#FF5500"/>
<path d="M257.946 547.316C257.908 551.58 253.205 557.102 250.189 559.636C247.188 562.183 247.493 553.321 243.128 545.689C238.756 538.1 245.046 539.652 247.101 536.946C249.157 534.239 246.622 531.223 247.85 526.796C247.85 526.796 250.514 521.884 256.176 532.053C258.335 535.948 257.968 543.041 257.957 547.301L257.946 547.316Z" fill="#FF5500"/>
<path d="M187.936 640.611C187.916 640.765 187.838 640.9 187.714 641C187.655 641.077 187.593 641.126 187.516 641.165C186.934 641.547 186.307 641.702 185.699 641.992C185.327 642.194 185.016 642.54 184.575 642.641C184.188 642.736 183.753 642.575 183.43 642.329C181.907 641.173 184.268 639.789 185.307 639.123C185.412 639.082 185.474 639.032 185.536 638.982C185.675 638.894 185.788 638.81 185.966 638.799C186.132 638.804 186.305 638.863 186.455 638.953C186.936 639.245 187.39 639.638 187.7 640.092C187.803 640.243 187.926 640.433 187.909 640.615L187.936 640.611Z" fill="#FF5500"/>
<path d="M186.182 633.022C185.657 635.534 184.811 636.807 183.832 637.203C180.792 638.555 176.243 631.9 173.921 630.136C170.861 627.812 161.031 625.972 152.491 623.487C148.585 622.339 147.427 619.81 147.21 616.711C146.942 613.041 147.985 608.667 147.242 605.047C145.876 598.384 150.845 601.358 158.614 604.858C166.383 608.357 162.338 602.061 158.263 598.965C154.188 595.87 149.727 593.282 150.761 590.867C151.796 588.452 155.642 586.548 153.998 584.498C152.353 582.449 156.727 577.744 161.467 575.718C161.467 575.718 166.851 574.982 171.946 575.65C177.055 576.33 179.172 585.165 180.935 591.305C182.686 597.46 189.12 591.096 198.584 590.257C204.304 589.751 200.742 595.654 196.336 601.838C193.43 605.887 190.137 610.031 188.859 612.576C185.622 618.945 188.419 622.67 186.182 633.022Z" fill="#FF5500"/>
<path d="M219.102 560.081C219.575 566.866 219.678 570.946 214.797 575.265C209.915 579.584 205.211 575.211 198.964 572.867C192.717 570.523 185.181 568.825 186.227 566.394C187.261 563.979 187.799 561.162 181.557 555.621C175.329 550.091 185.95 547.73 194.029 543.414C194.029 543.414 198.753 544.601 198.226 547.402C197.699 550.203 200.465 557.13 206.621 555.379C212.776 553.628 218.641 553.281 219.126 560.051L219.102 560.081Z" fill="#FF5500"/>
<path d="M231.708 525.764C233.074 527.989 232.461 531.573 229.977 532.257C227.985 532.805 226.066 531.373 224.518 530.027C222.581 528.362 220.507 525.889 220.772 523.593C220.838 522.77 221.557 522.176 222.376 522.023L225.373 521.461C227.769 522.457 230.331 523.554 231.708 525.764Z" fill="#FF5500"/>
<path d="M225.467 536.568C228.105 540.438 216.216 542.394 212.817 539.813C209.419 537.231 213.648 530.258 215.842 530.882C215.842 530.882 221.661 531.01 225.455 536.583L225.467 536.568Z" fill="#FF5500"/>
<path d="M197.693 526.967C197.693 526.967 219.124 533.617 196.086 538.599C191.321 539.636 179.329 539.525 176.807 534.384C174.285 529.243 188.878 525.898 197.693 526.967Z" fill="#FF5500"/>
<path d="M174.816 566.603C182.409 578.796 164.916 574.337 160.208 573.162C155.484 571.974 150.957 578.988 143.031 580.994C135.089 582.99 138.357 573.419 138.888 567.42C139.305 562.912 147.762 555.513 152.432 551.057C154.374 549.234 157.357 548.978 159.518 550.571C163.675 553.558 170.069 558.996 174.804 566.618L174.816 566.603Z" fill="#FF5500"/>
<path d="M43.1645 624.744L41.8841 626.973L39.7473 625.859C38.7592 622.562 37.4562 618.978 36.1846 615.927L38.8266 613.981L39.8572 615.37L44.4593 615.664L42.5067 619.831L43.1762 624.729L43.1645 624.744Z" fill="#F2EFEA"/>
<path d="M181.501 822.931L180.226 826.303C175.942 825.014 171.255 823.587 169.673 823.914L168.708 816.851C168.708 816.851 169.972 815.921 170.634 816.423C171.295 816.925 172.039 817.223 172.039 817.223C172.039 817.223 174.789 815.166 175.513 814.915C176.222 814.653 181.899 812.127 181.899 812.127L182.754 813.843L184.219 814.18L184.696 815.851L180.286 822.008L181.486 822.919L181.501 822.931Z" fill="#F2EFEA"/>
<path d="M168.719 816.836L169.685 823.898C169.495 823.924 169.364 823.97 169.266 824.066C167.756 825.32 165.504 825.476 165.362 827.769C165.221 830.063 165.252 832.511 160.165 830.781C155.05 829.055 153.483 827.574 150.372 829.212C150.372 829.212 144.685 833.283 142.266 834.041C139.879 834.822 139.217 834.926 138.834 833.834C138.45 832.743 138.73 830.555 137.294 834.265C135.862 838.003 136.148 842.416 129.147 842.118C122.135 841.836 112.79 840.922 111.686 842.121C110.593 843.304 107.926 843.654 105.822 849.331C103.737 854.95 99.269 865.621 96.9326 863.653C94.5963 861.684 96.7244 854.668 97.4605 852.389C98.1732 850.142 101.748 844.637 98.3485 842.248C94.9333 839.849 88.3389 832.439 85.7391 831.871C83.1664 831.3 82.5814 832.868 78.6005 828.85C74.6467 824.829 69.003 821.149 62.34 822.514C56.6824 823.673 56.3088 826.687 55.4248 827.883L51.8043 823.678L52.9419 807.398L50.5582 805.588C50.5582 805.588 48.1182 806.693 46.2917 806.639C44.4768 806.57 45.0889 801.167 45.3116 799.469C45.546 797.755 44.4879 794.551 44.4879 794.551L44.4347 791.843L39.6421 787.936L38.711 789.897L30.3687 782.202L24.7063 772.033L18.2791 768.267C18.2703 767.8 18.2186 767.421 18.1705 767.069C17.4939 762.724 14.5309 757.079 14.5339 754.68C14.5368 752.282 14.8529 740.276 18.5946 730.847C22.2977 721.438 36.0033 708.98 37.3412 706.165C38.2213 704.336 39.774 701.78 40.3401 698.864L43.0989 702.511L46.133 699.602L118.856 754.424L120.841 753.918L119.472 757.317L123.794 760.599L123.891 763.631L125.56 763.541L125.646 765.886L127.577 765.994L129.925 769.257L131.314 770.045L134.929 770.778L139.498 785.355L140.423 786.979L140.09 789.684L141.313 793.693L138.199 799.742C138.199 799.742 135.816 802.879 134.923 803.001C134.03 803.123 131.582 803.664 131.582 803.664C131.582 803.664 129.944 804.991 130.68 805.938C131.416 806.885 133.655 807.64 133.655 807.64L143.309 809.904L144.952 807.005L151.032 811.356C151.032 811.356 155.226 809.57 156.32 810.013C157.457 810.464 159.989 810.132 159.989 810.132L168.724 816.766L168.719 816.836Z" fill="#F2EFEA"/>
<path d="M51.9901 655.939L47.6185 659.045L42.7882 660.712C42.9526 653.343 42.3423 638.694 41.6131 633.46C41.3579 631.593 40.6677 628.862 39.7356 625.874L41.8725 626.988L45.9363 626.874L47.4781 624.844L51.3722 626.613L50.0628 630.444L50.7988 635.829L48.5539 649.353L51.9551 655.986L51.9901 655.939Z" fill="#F2EFEA"/>
<path d="M38.7996 613.984L36.1576 615.93C34.8553 612.856 33.5575 610.318 32.4907 609.168C29.4485 605.767 26.7994 598.686 24.7223 597.909C22.6299 597.12 19.5882 599.369 19.2028 599.876C18.8173 600.384 11.3176 598.956 9.40972 598.307C7.50181 597.658 7.89369 596.088 9.02102 594.253C10.1213 592.421 8.09776 589.817 4.37573 591.525C0.657403 593.26 7.09774 593.592 1.14036 595.785C-4.77829 597.958 -14.6864 600.084 -25.7107 598.38C-36.743 596.718 -43.3472 597.304 -44.9511 595.552C-46.5586 593.773 -46.9719 591.859 -41.7338 592.37C-36.4957 592.88 -28.5801 595.134 -24.063 594.806C-19.5577 594.493 -14.6451 592.622 -13.3369 590.9C-12.0287 589.178 -11.8512 588.561 -14.5985 586.207C-17.3495 583.827 -18.358 581.994 -20.5636 581.386C-22.7962 580.781 -20.4158 578.03 -19.6067 575.177C-18.786 572.309 -23.15 570.328 -24.0112 569.674C-24.8724 569.02 -25.8403 557.299 -19.9914 554.515C-14.127 551.743 -9.45503 549.423 -6.56387 551.619C-3.67272 553.815 0.364646 555.523 2.64306 551.119C4.93316 546.698 -4.04188 543.35 -6.241 541.679C-6.241 541.679 -9.98519 539.393 -8.44302 536.66C-6.91253 533.943 -7.632 532.208 -8.33842 530.871C-9.04485 529.535 -9.05826 527.924 -5.07599 528.524C-1.10539 529.139 4.62751 528.934 5.93703 529.54C7.22746 530.108 8.47935 531.302 8.07132 532.35C7.66328 533.398 4.44837 534.278 5.81705 535.318C7.18574 536.357 12.0463 539.249 12.4902 536.749C12.8953 534.268 11.4916 529.443 11.0381 528.444C10.5962 527.429 11.1569 524.775 11.2067 522.921C11.2449 521.083 9.12346 516.15 9.40535 514.885C9.68724 513.62 12.5006 510.809 12.5006 510.809C13.3454 510.336 12.792 510.521 15.1885 512.123C17.558 513.729 19.8667 513.882 23.3919 512.146C26.9288 510.395 30.1784 508.255 33.4688 508.936C36.7322 509.62 44.5017 510.501 48.5611 511.766C52.6087 513.045 53.1913 515.695 55.8356 519.109C58.4916 522.509 59.1071 528.02 63.2067 530.285C67.2713 532.596 69.2999 537.556 72.8155 540.59C76.3232 543.667 75.6753 544.775 79.9206 546.593C83.3029 548.046 82.0031 550.939 83.1829 553.823L37.8349 612.573L38.7695 613.864L38.7996 613.984Z" fill="#F2EFEA"/>
</g>
<g filter="url(#filter2_i_311_1151)">
<circle cx="214.5" cy="640.5" r="369.5" fill="#D9D9D9" fill-opacity="0.01"/>
</g>
</g>
</g>
</g>
<defs>
<filter id="filter0_dii_311_1151" x="-917" y="73" width="2263.58" height="2263.58" filterUnits="userSpaceOnUse" color-interpolation-filters="sRGB">
<feFlood flood-opacity="0" result="BackgroundImageFix"/>
<feColorMatrix in="SourceAlpha" type="matrix" values="0 0 0 0 0 0 0 0 0 0 0 0 0 0 0 0 0 0 127 0" result="hardAlpha"/>
<feOffset/>
<feGaussianBlur stdDeviation="100"/>
<feComposite in2="hardAlpha" operator="out"/>
<feColorMatrix type="matrix" values="0 0 0 0 0.94902 0 0 0 0 0.937255 0 0 0 0 0.917647 0 0 0 1 0"/>
<feBlend mode="normal" in2="BackgroundImageFix" result="effect1_dropShadow_311_1151"/>
<feBlend mode="normal" in="SourceGraphic" in2="effect1_dropShadow_311_1151" result="shape"/>
<feColorMatrix in="SourceAlpha" type="matrix" values="0 0 0 0 0 0 0 0 0 0 0 0 0 0 0 0 0 0 127 0" result="hardAlpha"/>
<feOffset/>
<feGaussianBlur stdDeviation="50"/>
<feComposite in2="hardAlpha" operator="arithmetic" k2="-1" k3="1"/>
<feColorMatrix type="matrix" values="0 0 0 0 0.94902 0 0 0 0 0.937255 0 0 0 0 0.917647 0 0 0 1 0"/>
<feBlend mode="normal" in2="shape" result="effect2_innerShadow_311_1151"/>
<feColorMatrix in="SourceAlpha" type="matrix" values="0 0 0 0 0 0 0 0 0 0 0 0 0 0 0 0 0 0 127 0" result="hardAlpha"/>
<feOffset/>
<feGaussianBlur stdDeviation="20"/>
<feComposite in2="hardAlpha" operator="arithmetic" k2="-1" k3="1"/>
<feColorMatrix type="matrix" values="0 0 0 0 0 0 0 0 0 0 0 0 0 0 0 0 0 0 1 0"/>
<feBlend mode="normal" in2="effect2_innerShadow_311_1151" result="effect3_innerShadow_311_1151"/>
</filter>
<filter id="filter1_d_311_1151" x="-77.7547" y="502.806" width="1020" height="1083.87" filterUnits="userSpaceOnUse" color-interpolation-filters="sRGB">
<feFlood flood-opacity="0" result="BackgroundImageFix"/>
<feColorMatrix in="SourceAlpha" type="matrix" values="0 0 0 0 0 0 0 0 0 0 0 0 0 0 0 0 0 0 127 0" result="hardAlpha"/>
<feOffset dy="9"/>
<feGaussianBlur stdDeviation="7.5"/>
<feComposite in2="hardAlpha" operator="out"/>
<feColorMatrix type="matrix" values="0 0 0 0 0 0 0 0 0 0 0 0 0 0 0 0 0 0 0.25 0"/>
<feBlend mode="normal" in2="BackgroundImageFix" result="effect1_dropShadow_311_1151"/>
<feBlend mode="normal" in="SourceGraphic" in2="effect1_dropShadow_311_1151" result="shape"/>
</filter>
<filter id="filter2_i_311_1151" x="-155" y="271" width="739" height="739" filterUnits="userSpaceOnUse" color-interpolation-filters="sRGB">
<feFlood flood-opacity="0" result="BackgroundImageFix"/>
<feBlend mode="normal" in="SourceGraphic" in2="BackgroundImageFix" result="shape"/>
<feColorMatrix in="SourceAlpha" type="matrix" values="0 0 0 0 0 0 0 0 0 0 0 0 0 0 0 0 0 0 127 0" result="hardAlpha"/>
<feOffset/>
<feGaussianBlur stdDeviation="125"/>
<feComposite in2="hardAlpha" operator="arithmetic" k2="-1" k3="1"/>
<feColorMatrix type="matrix" values="0 0 0 0 0 0 0 0 0 0 0 0 0 0 0 0 0 0 1 0"/>
<feBlend mode="normal" in2="shape" result="effect1_innerShadow_311_1151"/>
</filter>
<clipPath id="clip0_311_1151">
<rect width="430" height="932" fill="white"/>
</clipPath>
<clipPath id="clip1_311_1151">
<rect x="87.4319" y="273" width="1330" height="1330" rx="665" transform="rotate(37.217 87.4319 273)" fill="white"/>
</clipPath>
</defs>
</svg>
