<svg width="40" height="48" viewBox="0 0 40 48" fill="none" xmlns="http://www.w3.org/2000/svg">
<path d="M35.0768 2.57575C29.5655 -1.6154 21.6774 -0.583118 17.4501 4.88107C13.2228 10.3453 0 47.9197 0 47.9197C0 47.9197 33.1747 25.5158 37.402 20.0517C41.6293 14.5875 40.5882 6.7669 35.0768 2.57575ZM24.4846 16.269C22.1962 14.5291 21.762 11.2791 23.5207 9.01021C25.2756 6.74137 28.5537 6.31095 30.8421 8.05453C33.1306 9.79811 33.5647 13.0445 31.8061 15.3134C30.0511 17.5822 26.773 18.0126 24.4846 16.269Z" fill="#FF5500"/>
<path d="M29.8157 37.71L32.2181 33.3182L31.5633 38.2717L36.1107 36.1196L32.6412 39.7453L37.6007 40.6573L32.6412 41.5692L36.1107 45.1949L31.5633 43.0428L32.2181 48L29.8157 43.6046L27.4095 48L28.0644 43.0428L23.517 45.1949L26.9864 41.5692L22.0306 40.6573L26.9864 39.7453L23.517 36.1196L28.0644 38.2717L27.4095 33.3182L29.8157 37.71Z" fill="#FF5500"/>
</svg>
