<svg width="306" height="94" viewBox="0 0 306 94" fill="none" xmlns="http://www.w3.org/2000/svg">
<g clip-path="url(#clip0_94_102)">
<path d="M5.86443 9.02394C5.86443 7.52114 5.61103 6.3887 4.7205 5.51265L0.890524 1.88029C0.637123 1.5028 0 1.12532 0 0.754963C0 0.384604 0.253401 0 0.767443 0H20.0042C29.9448 0 36.8228 5.14229 36.8228 24.3155C36.8228 40.4831 31.4724 50.262 20.0042 50.262H15.6747V84.9832C15.6747 86.486 15.805 87.7395 16.8186 88.4945L21.5319 92.1268C21.9156 92.5043 22.4224 92.8818 22.4224 93.2522C22.4224 93.6225 22.169 94.0071 21.6549 94.0071H0.767443C0.260641 94.0071 0 93.6296 0 93.2522C0 92.8747 0.637123 92.6254 0.890524 92.1268L4.71326 88.4945C5.60379 87.6184 5.85719 86.486 5.85719 84.9832V9.02394H5.86443ZM15.6747 43.9944H19.3671C24.7175 43.9944 26.3754 38.2253 26.3754 24.3155C26.3754 10.4057 24.7175 6.26762 19.3671 6.26762H15.6747V43.9944Z" fill="#DBD525"/>
<path d="M56.3129 73.0747C56.1826 72.4479 55.8061 71.9494 55.169 71.9494H45.7424C45.3587 71.9494 45.1053 72.3269 44.975 72.8254L43.0636 86.6142C42.9333 87.4902 43.1939 88.2452 43.7007 88.8719L46.5026 91.7565C47.0094 92.3832 47.7769 92.8818 47.7769 93.2593C47.7769 93.6368 47.5235 94.0142 46.8864 94.0142H32.2325C31.7257 94.0142 31.4651 93.6368 31.4651 93.2593C31.4651 92.8818 31.9719 92.3832 32.3556 92.0058L35.9249 88.4945C36.6924 87.7395 36.8155 86.486 36.9458 85.3607L48.5443 1.12532C48.6747 0.49856 48.928 0 49.5652 0H54.2784C54.9156 0 55.2993 0.626762 55.4224 1.38172L67.5277 85.4817C67.658 86.7353 68.0345 88.117 68.9323 88.8648L72.6247 92.1268C73.0084 92.5043 73.3921 92.8818 73.3921 93.2522C73.3921 93.6225 73.1387 94.0071 72.5016 94.0071H54.1554C53.5182 94.0071 53.2648 93.6296 53.2648 93.2522C53.2648 92.8747 53.7716 92.4972 54.1554 92.1268L57.5944 88.7438C58.1012 88.2452 58.3618 87.362 58.2315 86.2367L56.3201 73.0747H56.3129ZM54.5318 65.3043C54.9156 65.3043 55.169 64.9268 55.0386 64.4282L50.5788 33.724H50.3254L46.1189 64.5564C45.9886 65.055 46.2492 65.3114 46.5026 65.3114H54.5318V65.3043Z" fill="#DBD525"/>
<path d="M103.967 32.4634C103.967 32.8409 103.714 33.0902 103.2 33.0902C102.816 33.0902 102.562 32.7127 102.432 32.2141C100.39 22.0649 94.2798 6.26762 88.4154 6.26762C85.2298 6.26762 84.9764 8.90286 84.9764 12.1578C84.9764 18.2972 86.6343 24.4437 96.0609 44.1155C104.981 62.6619 106.001 66.8 106.001 76.7C106.001 89.983 98.9931 94 94.2798 94C90.8408 94 88.676 92.6183 87.1484 91.6212C85.7438 90.7451 84.9836 90.3676 84.5999 90.3676C84.0931 90.3676 83.0722 91.2437 80.5238 93.124C80.017 93.5014 79.5029 94 78.9961 94C78.4893 94 78.359 93.7507 78.359 93.3732V61.7859C78.359 61.4084 78.4893 60.9098 78.9961 60.9098C79.3798 60.9098 79.6332 61.4084 79.7635 61.7859C82.0586 71.8141 86.0045 87.7324 93.5268 87.7324C95.945 87.7324 97.2193 85.0971 97.2193 81.2155C97.2193 72.8183 93.3965 63.6662 86.1348 48.631C79.2567 34.3437 76.7083 24.8141 76.7083 15.669C76.7083 3.76057 81.9283 0 88.4299 0C90.848 0 93.6572 1.38172 95.5613 2.88453C96.1984 3.26201 96.9659 3.63949 97.4727 3.63949C97.9795 3.63949 99.2537 2.76345 100.405 1.631C101.549 0.626762 102.316 0 103.084 0C103.721 0 103.974 0.626762 103.974 1.38172V32.4634H103.967Z" fill="#DBD525"/>
<path d="M139.392 32.4634C139.392 32.8409 139.139 33.0902 138.625 33.0902C138.241 33.0902 137.988 32.7127 137.857 32.2141C135.816 22.0649 129.705 6.26762 123.841 6.26762C120.655 6.26762 120.402 8.90286 120.402 12.1578C120.402 18.2972 122.06 24.4437 131.486 44.1155C140.406 62.6619 141.427 66.8 141.427 76.7C141.427 89.983 134.418 94 129.705 94C126.266 94 124.101 92.6183 122.574 91.6212C121.169 90.7451 120.409 90.3676 120.025 90.3676C119.518 90.3676 118.498 91.2437 115.949 93.124C115.442 93.5014 114.928 94 114.421 94C113.915 94 113.784 93.7507 113.784 93.3732V61.7859C113.784 61.4084 113.915 60.9098 114.421 60.9098C114.805 60.9098 115.059 61.4084 115.189 61.7859C117.484 71.8141 121.43 87.7324 128.952 87.7324C131.37 87.7324 132.645 85.0971 132.645 81.2155C132.645 72.8183 128.822 63.6662 121.56 48.631C114.682 34.3437 112.134 24.8141 112.134 15.669C112.134 3.76057 117.354 0 123.855 0C126.273 0 129.082 1.38172 130.987 2.88453C131.624 3.26201 132.391 3.63949 132.898 3.63949C133.405 3.63949 134.679 2.76345 135.83 1.631C136.974 0.626762 137.742 0 138.509 0C139.146 0 139.4 0.626762 139.4 1.38172V32.4634H139.392Z" fill="#DBD525"/>
<path d="M168.671 94L169.077 91.3078C169.714 91.1653 170.293 91.1653 170.59 91.1653C172.103 91.0229 172.972 90.0329 173.261 88.0529C173.725 84.6556 172.277 74.606 169.605 63.9938L165.949 49.1367L164.146 52.1067L160.49 78.5731C159.042 88.9076 159.447 90.6027 163.567 91.3078L163.162 94H147.95L148.298 91.3078C152.656 90.6027 153.583 88.758 155.205 77.0133L163.683 15.7331C165.073 5.68359 164.725 3.84604 160.606 2.99849L160.953 0.306259H176.28L175.933 2.99849C171.459 3.84604 170.59 5.40582 169.142 15.7331L165.196 44.7494L177.852 21.9651C181.855 14.7503 183.716 10.4983 184.121 7.38582C184.527 4.55827 184.006 3.42582 182.434 3.14093C182.203 3.14093 181.682 3.14093 181.044 2.99849L181.45 0.306259H195.561L195.213 2.99849C191.441 3.70359 190.449 4.83604 185.461 14.038L171.466 40.6469L179.133 76.0305C182.152 89.7622 182.731 91.1725 185.519 91.3149L185.171 94.0071H168.678L168.671 94Z" fill="#DBD525"/>
<path d="M186.214 94L186.619 91.3078C191.209 90.8804 192.194 89.1853 193.642 78.5731L202.352 15.7331C203.807 5.26337 203.336 3.70359 198.869 2.99849L199.275 0.306259H215.297L214.892 2.99849C210.301 3.56115 209.259 5.40582 207.811 15.7331L199.159 78.5731C197.711 88.9076 198.29 90.8876 202.641 91.3078L202.294 94H186.207H186.214Z" fill="#DBD525"/>
<path d="M243.634 24.3725C244.561 8.80316 243.75 6.25338 237.596 6.25338H234.693L224.651 78.5731C223.203 88.9076 223.724 90.7451 228.076 91.3078L227.67 94H211.938L212.285 91.3078C216.875 90.6027 217.686 89.0429 219.366 77.0134L229.176 6.24626H226.273C220.235 6.24626 218.606 8.79604 215.123 24.3654H213.849L217.505 0.313385H247.986L244.967 24.3725H243.634Z" fill="#DBD525"/>
<path d="M296.313 5.09956C285.467 -3.08395 269.945 -1.06834 261.626 9.60085C253.307 20.27 227.286 93.6368 227.286 93.6368C227.286 93.6368 292.57 49.8917 300.889 39.2225C309.207 28.5533 307.158 13.2831 296.313 5.09956ZM275.469 31.8366C270.966 28.4393 270.111 22.0933 273.572 17.6633C277.025 13.2332 283.476 12.3928 287.98 15.7972C292.483 19.2017 293.337 25.5405 289.876 29.9706C286.423 34.4007 279.972 35.2411 275.469 31.8366Z" fill="#DBD525"/>
<path d="M285.96 73.7015L290.687 65.1262L289.399 74.7983L298.347 70.5962L291.52 77.6757L301.279 79.4563L291.52 81.2369L298.347 88.3164L289.399 84.1143L290.687 93.7935L285.96 85.2111L281.225 93.7935L282.513 84.1143L273.565 88.3164L280.392 81.2369L270.64 79.4563L280.392 77.6757L273.565 70.5962L282.513 74.7983L281.225 65.1262L285.96 73.7015Z" fill="#DBD525"/>
</g>
<defs>
<clipPath id="clip0_94_102">
<rect width="306" height="94" fill="white"/>
</clipPath>
</defs>
</svg>
